#tb 0: 1/25
#media_type 0: video
#codec_id 0: rawvideo
#dimensions 0: 720x480
#sar 0: 0/1
0,          1,          1,        1,   518400, 0x99d0df36
0,          2,          2,        1,   518400, 0xa8601c1a
0,          3,          3,        1,   518400, 0x4a17d235
0,          4,          4,        1,   518400, 0x75f23abf
0,          5,          5,        1,   518400, 0x746aad53
0,          6,          6,        1,   518400, 0xb0b8913e
0,          7,          7,        1,   518400, 0x60a27f57
0,          8,          8,        1,   518400, 0xfa227f3e
0,          9,          9,        1,   518400, 0x7a1e57c2
0,         10,         10,        1,   518400, 0xcbbaa84f
0,         11,         11,        1,   518400, 0xf9c1bd13
0,         12,         12,        1,   518400, 0x9e80caaf
0,         13,         13,        1,   518400, 0x14cc6928
0,         14,         14,        1,   518400, 0xca0353ef
0,         15,         15,        1,   518400, 0xcad65e5f
0,         16,         16,        1,   518400, 0xd5bc47b3
0,         17,         17,        1,   518400, 0xa9893d36
0,         18,         18,        1,   518400, 0x69bd9085
0,         19,         19,        1,   518400, 0xff33c476
0,         20,         20,        1,   518400, 0x9538adf7
0,         21,         21,        1,   518400, 0xd4ff3b62
0,         22,         22,        1,   518400, 0x021a11fd
0,         23,         23,        1,   518400, 0x293e6f9f
0,         24,         24,        1,   518400, 0x5d38e4c3
0,         25,         25,        1,   518400, 0xd1f4ad49
0,         26,         26,        1,   518400, 0xf13dd946
0,         27,         27,        1,   518400, 0x0359e9ff
0,         28,         28,        1,   518400, 0xb61098ad
0,         29,         29,        1,   518400, 0xa855b11c
0,         30,         30,        1,   518400, 0x7fcf9343
